<svg xmlns="http://www.w3.org/2000/svg" width="35" height="35">
    <g fill="none" fill-rule="evenodd">
        <path fill="#FFEBBA" d="M12.293 7.32c.494 2.546-.278 5.18-2.082 7.103a8.563 8.563 0 0 1-7.065 2.646c2.235 3.044 6.32 4.187 9.9 2.771 3.582-1.416 5.737-5.026 5.224-8.75-.513-3.725-3.561-6.604-7.389-6.98a7.963 7.963 0 0 1 1.412 3.21z"/>
        <path stroke="#3B4351" stroke-linecap="round" stroke-linejoin="round" stroke-width="1.2" d="M7.224 19.721A7.976 7.976 0 0 1 3.818 17.1a7.439 7.439 0 0 0 4.521-.588 7.5 7.5 0 0 0 3.576-9.985 7.448 7.448 0 0 0-1.6-2.194 7.97 7.97 0 0 1 7.848 6.974"/>
        <path fill="#C7CCD6" d="M25.001 28.334a8 8 0 1 0-7.849-9.496 4.993 4.993 0 1 0-2.15 9.496h10z"/>
        <g stroke="#3B4351" stroke-linecap="round" stroke-linejoin="round" stroke-width="1.2">
            <path d="M29 26.963a8 8 0 1 0-11.85-8.426A4.993 4.993 0 1 0 15 28.033M17 20.033a7.797 7.797 0 0 1 .15-1.496M20 28.033l-5.147 5.147M26 28.033l-5.147 5.147"/>
        </g>
    </g>
</svg>
