<svg xmlns="http://www.w3.org/2000/svg" width="35" height="35">
    <g fill="none" fill-rule="evenodd">
        <path fill="#CFECFF" d="M19.335 25.334a8 8 0 1 0-7.85-9.496 4.993 4.993 0 1 0-2.15 9.496h10z"/>
        <g stroke="#3B4351" stroke-linecap="round" stroke-linejoin="round" stroke-width="1.2">
            <path d="M11.035 16.912a7.905 7.905 0 0 1 .15-1.496M26.78 14.901a8 8 0 0 0-15.6.515 4.993 4.993 0 1 0-2.15 9.496"/>
        </g>
        <path stroke="#3B4351" stroke-linecap="round" stroke-linejoin="round" stroke-width="1.2" d="M16 22l3.769 2 3.634-2 3.546 2 3.721-2M16 25l3.769 2 3.634-2 3.546 2 3.721-2"/>
    </g>
</svg>
